{"glyphs":{"\u0000":{"ha":0,"x_min":0,"x_max":0,"o":""},"\r":{"ha":281,"x_min":0,"x_max":0,"o":""}," ":{"ha":281,"x_min":0,"x_max":0,"o":""},"ກ":{"ha":750,"x_min":14,"x_max":653,"o":"m 97 722 l 190 665 l 282 703 q 375 722 329 722 q 467 703 421 722 l 582 657 q 653 535 653 628 l 653 69 l 514 0 l 514 535 l 282 628 l 236 610 l 236 69 l 97 0 l 14 118 l 97 179 l 97 539 l 14 608 l 97 722 z "},"ຂ":{"ha":750,"x_min":97,"x_max":653,"o":"m 236 596 l 319 535 l 236 417 l 97 486 l 97 563 q 167 656 97 628 l 282 703 q 375 722 329 722 q 467 703 421 722 l 582 657 q 653 563 653 628 l 653 469 q 601 382 653 403 l 236 235 l 236 150 l 653 318 l 653 69 l 514 0 l 514 113 l 236 0 l 97 69 l 97 326 l 514 496 l 514 535 l 282 628 l 236 610 l 236 596 z "},"ຄ":{"ha":750,"x_min":97,"x_max":653,"o":"m 653 69 l 514 0 l 514 535 l 282 628 l 236 610 l 236 425 l 375 369 l 318 243 l 236 276 l 236 179 l 319 118 l 236 0 l 97 69 l 97 249 l 176 301 l 97 332 l 97 563 q 167 656 97 628 l 282 703 q 375 722 329 722 q 467 703 421 722 l 582 657 q 653 563 653 628 l 653 69 z "},"ງ":{"ha":333,"x_min":-139,"x_max":236,"o":"m 51 -178 l 97 -160 l 97 543 l 56 574 l 14 604 l 97 722 l 236 653 l 236 -85 q 167 -206 236 -178 l 51 -253 q -42 -272 4 -272 q -139 -253 -87 -272 l -64 -135 l 51 -178 z "},"ຈ":{"ha":750,"x_min":97,"x_max":653,"o":"m 514 268 l 514 535 l 282 628 l 236 610 l 236 486 l 97 417 l 97 563 q 167 656 97 628 l 282 703 q 375 722 329 722 q 467 703 421 722 l 582 657 q 653 563 653 628 l 653 69 l 514 0 l 514 100 l 379 189 l 303 113 l 156 260 l 303 407 l 514 268 z "},"ຊ":{"ha":750,"x_min":97,"x_max":653,"o":"m 236 596 l 319 535 l 236 417 l 97 486 l 97 563 q 167 656 97 628 l 282 703 q 375 722 329 722 q 467 703 421 722 l 582 657 q 653 563 653 628 l 653 469 q 601 382 653 403 l 236 235 l 236 150 l 653 318 l 653 -139 l 514 -208 l 514 113 l 236 0 l 97 69 l 97 326 l 514 496 l 514 535 l 282 628 l 236 610 l 236 596 z "},"ຍ":{"ha":750,"x_min":97,"x_max":653,"o":"m 97 653 l 236 722 l 319 604 l 236 543 l 236 446 l 318 479 l 375 353 l 236 297 l 236 188 l 468 94 l 514 113 l 514 653 l 653 722 l 653 160 q 583 67 653 94 l 468 19 q 375 0 421 0 q 283 19 329 0 l 168 65 q 97 160 97 94 l 97 390 l 176 422 l 97 474 l 97 653 z "},"ດ":{"ha":750,"x_min":97,"x_max":653,"o":"m 653 69 l 514 0 l 514 535 l 282 628 l 236 610 l 236 179 l 319 118 l 236 0 l 97 69 l 97 563 q 167 656 97 628 l 282 703 q 375 722 329 722 q 467 703 421 722 l 582 657 q 653 563 653 628 l 653 69 z "},"ຕ":{"ha":750,"x_min":97,"x_max":653,"o":"m 236 589 l 236 179 l 319 118 l 236 0 l 97 69 l 97 563 q 138 656 97 628 l 206 703 q 260 722 233 722 q 314 703 286 722 l 375 661 l 436 703 q 490 722 464 722 q 544 703 517 722 l 611 657 q 653 563 653 628 l 653 69 l 514 0 l 514 556 l 436 610 l 342 515 l 236 589 z "},"ຖ":{"ha":750,"x_min":14,"x_max":653,"o":"m 236 179 l 319 118 l 236 0 l 97 69 l 97 539 l 14 608 l 97 722 l 190 665 l 282 703 q 375 722 329 722 q 467 703 421 722 l 582 657 q 653 535 653 628 l 653 -208 l 514 -278 l 514 535 l 282 628 l 236 610 l 236 179 z "},"ທ":{"ha":1075,"x_min":97,"x_max":978,"o":"m 607 160 q 514 47 607 94 q 375 0 421 0 q 283 19 329 0 l 168 65 q 97 160 97 94 l 97 315 q 139 418 97 375 q 181 483 181 461 l 181 543 l 97 604 l 181 722 l 319 653 l 319 483 q 278 381 319 424 q 236 315 236 338 l 236 188 l 468 94 l 468 563 q 561 675 468 628 q 700 722 654 722 q 792 703 746 722 l 907 657 q 978 563 978 628 l 978 69 l 839 0 l 839 535 l 607 628 l 607 160 z "},"ນ":{"ha":750,"x_min":14,"x_max":653,"o":"m 190 57 l 97 0 l 97 543 l 14 604 l 97 722 l 236 653 l 236 188 l 468 94 l 514 113 l 514 653 l 653 722 l 653 160 q 583 67 653 94 l 468 19 q 375 0 421 0 q 283 19 329 0 l 190 57 z "},"ບ":{"ha":750,"x_min":97,"x_max":653,"o":"m 97 315 q 139 418 97 375 q 181 483 181 461 l 181 543 l 97 604 l 181 722 l 319 653 l 319 483 q 278 381 319 424 q 236 315 236 338 l 236 188 l 468 94 l 514 113 l 514 653 l 653 722 l 653 160 q 583 67 653 94 l 468 19 q 375 0 421 0 q 283 19 329 0 l 168 65 q 97 160 97 94 l 97 315 z "},"ປ":{"ha":750,"x_min":97,"x_max":653,"o":"m 97 315 q 139 418 97 375 q 181 483 181 461 l 181 543 l 97 604 l 181 722 l 319 653 l 319 483 q 278 381 319 424 q 236 315 236 338 l 236 188 l 468 94 l 514 113 l 514 931 l 653 1000 l 653 160 q 583 67 653 94 l 468 19 q 375 0 421 0 q 283 19 329 0 l 168 65 q 97 160 97 94 l 97 315 z "},"ຜ":{"ha":750,"x_min":97,"x_max":819,"o":"m 653 160 q 611 65 653 94 l 544 19 q 490 0 517 0 q 436 19 464 0 l 375 61 l 314 19 q 260 0 286 0 q 206 19 233 0 l 138 67 q 97 160 97 94 l 97 653 l 236 722 l 319 604 l 236 543 l 236 133 l 342 207 l 436 113 l 514 167 l 514 543 l 431 604 l 514 722 l 653 653 l 653 650 l 819 650 l 750 544 l 653 544 l 653 160 z "},"ຝ":{"ha":750,"x_min":97,"x_max":653,"o":"m 653 160 q 611 65 653 94 l 544 19 q 490 0 517 0 q 436 19 464 0 l 375 61 l 314 19 q 260 0 286 0 q 206 19 233 0 l 138 67 q 97 160 97 94 l 97 653 l 236 722 l 319 604 l 236 543 l 236 133 l 342 207 l 436 113 l 514 167 l 514 931 l 653 1000 l 653 160 z "},"ພ":{"ha":1075,"x_min":97,"x_max":978,"o":"m 839 653 l 978 722 l 978 160 q 885 47 978 94 q 746 0 792 0 q 654 19 700 0 l 543 64 q 514 47 529 56 q 375 0 421 0 q 283 19 329 0 l 168 65 q 97 160 97 94 l 97 315 q 139 418 97 375 q 181 483 181 461 l 181 543 l 97 604 l 181 722 l 319 653 l 319 483 q 278 381 319 424 q 236 315 236 338 l 236 188 l 468 94 l 468 653 l 607 722 l 607 188 l 839 94 l 839 653 z "},"ຟ":{"ha":1075,"x_min":97,"x_max":978,"o":"m 839 931 l 978 1000 l 978 160 q 885 47 978 94 q 746 0 792 0 q 654 19 700 0 l 543 64 q 514 47 529 56 q 375 0 421 0 q 283 19 329 0 l 168 65 q 97 160 97 94 l 97 315 q 139 418 97 375 q 181 483 181 461 l 181 543 l 97 604 l 181 722 l 319 653 l 319 483 q 278 381 319 424 q 236 315 236 338 l 236 188 l 468 94 l 468 653 l 607 722 l 607 188 l 839 94 l 839 931 z "},"ມ":{"ha":750,"x_min":14,"x_max":653,"o":"m 97 653 l 236 722 l 236 188 l 468 94 l 514 113 l 514 653 l 653 722 l 653 160 q 583 67 653 94 l 468 19 q 375 0 421 0 q 283 19 329 0 l 190 57 l 97 0 l 14 114 l 97 183 l 97 653 z "},"ຢ":{"ha":750,"x_min":97,"x_max":653,"o":"m 97 653 l 236 722 l 319 604 l 236 543 l 236 446 l 318 479 l 375 353 l 236 297 l 236 188 l 468 94 l 514 113 l 514 931 l 653 1000 l 653 160 q 583 67 653 94 l 468 19 q 375 0 421 0 q 283 19 329 0 l 168 65 q 97 160 97 94 l 97 390 l 176 422 l 97 474 l 97 653 z "},"ຣ":{"ha":750,"x_min":97,"x_max":653,"o":"m 97 304 l 236 374 l 319 256 l 236 194 l 236 188 l 468 94 l 514 113 l 514 300 l 97 469 l 97 563 q 167 656 97 628 l 282 703 q 375 722 329 722 q 467 703 421 722 l 582 657 l 514 535 l 282 628 l 236 610 l 236 561 l 601 414 q 653 326 653 393 l 653 160 q 583 67 653 94 l 468 19 q 375 0 421 0 q 283 19 329 0 l 168 65 q 97 160 97 94 l 97 304 z "},"ລ":{"ha":750,"x_min":97,"x_max":653,"o":"m 514 286 l 514 535 l 282 628 l 236 610 l 236 486 l 97 417 l 97 563 q 167 656 97 628 l 282 703 q 375 722 329 722 q 467 703 421 722 l 582 657 q 653 563 653 628 l 653 69 l 514 0 l 514 136 l 236 249 l 236 179 l 319 118 l 236 0 l 97 69 l 97 329 l 236 399 l 514 286 z "},"ວ":{"ha":750,"x_min":97,"x_max":653,"o":"m 653 160 q 583 67 653 94 l 468 19 q 375 0 421 0 q 283 19 329 0 l 168 65 q 97 160 97 94 l 97 304 l 236 374 l 319 256 l 236 194 l 236 188 l 468 94 l 514 113 l 514 535 l 282 628 l 236 610 l 236 542 l 97 472 l 97 563 q 167 656 97 628 l 282 703 q 375 722 329 722 q 467 703 421 722 l 582 657 q 653 563 653 628 l 653 160 z "},"ສ":{"ha":750,"x_min":97,"x_max":722,"o":"m 653 511 l 653 69 l 514 0 l 514 136 l 236 249 l 236 179 l 319 118 l 236 0 l 97 69 l 97 329 l 236 399 l 514 286 l 514 399 l 476 368 l 97 525 l 97 563 q 167 656 97 628 l 282 703 q 375 722 329 722 q 467 703 421 722 l 582 657 q 642 610 624 639 l 722 679 l 722 567 l 653 511 m 514 499 l 514 535 l 282 628 l 236 610 l 236 563 l 476 467 l 514 499 z "},"ຫ":{"ha":1075,"x_min":97,"x_max":978,"o":"m 607 160 q 514 47 607 94 q 375 0 421 0 q 283 19 329 0 l 168 65 q 97 160 97 94 l 97 315 q 139 418 97 375 q 181 483 181 461 l 181 543 l 97 604 l 181 722 l 319 653 l 319 483 q 278 381 319 424 q 236 315 236 338 l 236 188 l 468 94 l 468 608 l 426 646 l 482 722 l 561 665 q 700 722 654 722 q 792 703 746 722 l 907 657 q 978 535 978 628 l 978 69 l 839 0 l 839 535 l 607 628 l 607 160 z "},"ອ":{"ha":750,"x_min":97,"x_max":653,"o":"m 514 499 l 514 535 l 282 628 l 236 610 l 236 563 l 476 467 l 514 499 m 514 357 l 476 326 l 97 483 l 97 563 q 167 656 97 628 l 282 703 q 375 722 329 722 q 467 703 421 722 l 582 657 q 653 563 653 628 l 653 160 q 583 67 653 94 l 468 19 q 375 0 421 0 q 283 19 329 0 l 168 65 q 97 160 97 94 l 97 304 l 236 374 l 319 256 l 236 194 l 236 188 l 468 94 l 514 113 l 514 357 z "},"ຮ":{"ha":750,"x_min":97,"x_max":653,"o":"m 514 535 l 282 628 l 236 610 l 236 561 l 601 414 q 653 326 653 393 l 653 160 q 583 67 653 94 l 468 19 q 375 0 421 0 q 283 19 329 0 l 168 65 q 97 160 97 94 l 97 304 l 236 374 l 319 256 l 236 194 l 236 188 l 468 94 l 514 113 l 514 300 l 97 469 l 97 563 q 167 656 97 628 l 282 703 q 375 722 329 722 q 467 703 421 722 l 514 683 l 514 833 l 653 903 l 653 604 l 514 535 z "},"ຯ":{"ha":911,"x_min":97,"x_max":814,"o":"m 522 390 l 468 368 q 375 349 421 349 q 283 368 329 349 l 168 414 q 97 508 97 443 l 97 653 l 236 722 l 319 604 l 236 543 l 236 536 l 468 443 l 514 461 l 567 479 l 689 722 l 814 660 l 360 -240 l 236 -178 l 522 390 z "},"ະ":{"ha":750,"x_min":97,"x_max":653,"o":"m 514 515 l 514 694 l 653 625 l 653 563 q 583 469 653 497 l 468 422 q 375 403 421 403 q 283 422 329 403 l 168 468 q 97 563 97 497 l 97 625 l 236 694 l 319 576 l 303 564 l 468 497 l 514 515 m 514 140 l 514 319 l 653 250 l 653 188 q 583 94 653 122 l 468 47 q 375 28 421 28 q 283 47 329 28 l 168 93 q 97 188 97 122 l 97 250 l 236 319 l 319 201 l 303 189 l 468 122 l 514 140 z "},"ັ":{"ha":0,"x_min":-653,"x_max":-97,"o":"m -236 876 l -236 1056 l -97 986 l -97 924 q -167 831 -97 858 l -282 783 q -375 764 -329 764 q -467 783 -421 764 l -582 829 q -653 924 -653 858 l -653 986 l -514 1056 l -431 938 l -447 925 l -282 858 l -236 876 z "},"າ":{"ha":333,"x_min":14,"x_max":236,"o":"m 236 69 l 97 0 l 97 543 l 14 604 l 97 722 l 236 653 l 236 69 z "},"ຳ":{"ha":333,"x_min":-182,"x_max":236,"o":"m 236 69 l 97 0 l 97 543 l 14 604 l 97 722 l 236 653 l 236 69 m -35 1128 l 113 981 l -35 833 l -182 981 l -35 1128 z "},"ິ":{"ha":3,"x_min":-653,"x_max":-97,"o":"m -653 896 q -583 989 -653 961 l -468 1036 q -375 1056 -421 1056 q -283 1036 -329 1056 l -168 990 q -97 896 -97 961 l -97 868 l -167 764 l -335 764 l -260 878 l -468 961 l -514 943 l -431 882 l -514 764 l -653 833 l -653 896 z "},"ີ":{"ha":3,"x_min":-653,"x_max":31,"o":"m -111 847 l 31 847 l -25 764 l -369 764 l -314 847 l -279 847 l -260 878 l -468 961 l -514 943 l -431 882 l -514 764 l -653 833 l -653 896 q -583 989 -653 961 l -468 1036 q -375 1056 -421 1056 q -283 1036 -329 1056 l -168 990 q -97 896 -97 961 l -97 868 l -111 847 z "},"ຶ":{"ha":3,"x_min":-653,"x_max":-97,"o":"m -306 900 l -371 828 l -447 896 l -382 969 l -306 900 m -653 896 q -583 989 -653 961 l -468 1036 q -375 1056 -421 1056 q -283 1036 -329 1056 l -168 990 q -97 896 -97 961 l -97 868 l -167 764 l -335 764 l -246 897 l -378 1015 l -499 900 l -451 851 l -514 764 l -653 833 l -653 896 z "},"ື":{"ha":3,"x_min":-653,"x_max":31,"o":"m -306 900 l -371 828 l -447 896 l -382 969 l -306 900 m -279 847 l -246 897 l -378 1015 l -499 900 l -451 851 l -514 764 l -653 833 l -653 896 q -583 989 -653 961 l -468 1036 q -375 1056 -421 1056 q -283 1036 -329 1056 l -168 990 q -97 896 -97 961 l -97 868 l -111 847 l 31 847 l -25 764 l -369 764 l -314 847 l -279 847 z "},"ຸ":{"ha":0,"x_min":-319,"x_max":-97,"o":"m -97 -319 l -236 -389 l -236 -221 l -319 -160 l -236 -42 l -97 -111 l -97 -319 z "},"ູ":{"ha":0,"x_min":-512,"x_max":-97,"o":"m -429 -389 l -429 -221 l -512 -160 l -429 -42 l -318 -111 l -318 -278 l -221 -278 l -221 -133 l -97 -57 l -97 -296 l -217 -389 l -429 -389 z "},"ົ":{"ha":0,"x_min":-653,"x_max":-97,"o":"m -653 896 q -583 989 -653 961 l -468 1036 q -375 1056 -421 1056 q -283 1036 -329 1056 l -168 990 q -97 896 -97 961 l -97 833 l -236 764 l -236 868 l -468 961 l -514 943 l -431 882 l -514 764 l -653 833 l -653 896 z "},"ຼ":{"ha":0,"x_min":-799,"x_max":-62,"o":"m -62 -83 l -182 -378 l -372 -378 l -465 -181 l -554 -181 l -504 -231 l -651 -378 l -799 -231 l -651 -83 l -357 -83 l -265 -289 l -182 -83 l -62 -83 z "},"ຽ":{"ha":333,"x_min":-250,"x_max":403,"o":"m 236 -229 q 155 -335 236 -294 q 28 -375 74 -375 q -64 -356 -18 -375 l -179 -310 q -250 -215 -250 -281 l -250 -99 l -111 -29 l -42 -133 l -111 -181 l -111 -187 l 97 -271 l 97 543 l 14 604 l 97 722 l 236 653 l 236 650 l 403 650 l 333 544 l 236 544 l 236 -229 z "},"ເ":{"ha":333,"x_min":97,"x_max":319,"o":"m 236 179 l 319 118 l 236 0 l 97 69 l 97 653 l 236 722 l 236 179 z "},"ແ":{"ha":639,"x_min":97,"x_max":625,"o":"m 403 653 l 542 722 l 542 179 l 625 118 l 542 0 l 403 69 l 403 653 m 97 653 l 236 722 l 236 179 l 319 118 l 236 0 l 97 69 l 97 653 z "},"ໂ":{"ha":333,"x_min":-60,"x_max":415,"o":"m 236 179 l 319 118 l 236 0 l 97 69 l 97 771 l -60 872 l -60 986 q 61 1103 -60 1103 q 214 1046 124 1103 l 354 950 l 415 950 l 360 853 l 251 853 l 157 915 l 158 915 l 79 967 l 79 878 l 328 707 l 286 647 l 236 679 l 236 179 z "},"ໃ":{"ha":333,"x_min":-82,"x_max":375,"o":"m 236 179 l 319 118 l 236 0 l 97 69 l 97 657 l 236 742 l 236 907 l 57 979 l 57 779 l -82 724 l -82 914 q 11 1026 -82 979 q 150 1074 104 1074 q 242 1054 196 1074 l 304 1029 q 375 935 375 1000 l 375 744 l 236 660 l 236 179 z "},"ໄ":{"ha":333,"x_min":13,"x_max":375,"o":"m 236 179 l 319 118 l 236 0 l 97 69 l 97 672 l 264 799 l 179 839 l 13 725 l 13 1065 l 151 1135 l 151 894 l 231 956 l 375 886 l 375 772 l 236 674 l 236 179 z "},"ໆ":{"ha":750,"x_min":97,"x_max":653,"o":"m 236 526 l 319 465 l 236 347 l 97 417 l 97 563 q 138 656 97 628 l 206 703 q 260 722 233 722 q 314 703 286 722 l 375 661 l 436 703 q 490 722 464 722 q 544 703 517 722 l 611 657 q 653 563 653 628 l 653 -85 q 583 -206 653 -178 l 468 -253 q 375 -272 421 -272 q 283 -253 329 -272 l 168 -207 l 236 -85 l 353 -131 l 468 -178 l 514 -160 l 514 556 l 436 610 l 342 515 l 236 589 l 236 526 z "},"່":{"ha":3,"x_min":-358,"x_max":-247,"o":"m -247 1365 l -247 1164 l -358 1108 l -358 1310 l -247 1365 z "},"້":{"ha":3,"x_min":-481,"x_max":6,"o":"m -371 1236 l -444 1261 l -393 1367 l -261 1322 l -261 1232 l -308 1183 l -133 1254 l -133 1358 l 6 1289 l 6 1226 q -65 1132 6 1161 l -181 1086 q -272 1067 -226 1067 q -365 1086 -318 1067 l -481 1133 l -371 1236 z "},"໊":{"ha":3,"x_min":-485,"x_max":115,"o":"m -37 1267 l 38 1301 l 38 1367 l 115 1339 l 115 1224 l -126 1124 l -183 1193 l -118 1263 l -146 1296 l -249 1197 l -351 1296 l -379 1263 l -314 1193 l -371 1124 l -485 1239 l -367 1367 l -317 1367 l -249 1306 l -181 1367 l -131 1367 l -37 1267 z "},"໋":{"ha":3,"x_min":-457,"x_max":-139,"o":"m -358 1189 l -457 1189 l -429 1281 l -358 1281 l -358 1339 l -239 1367 l -239 1281 l -139 1281 l -167 1189 l -239 1189 l -239 1131 l -358 1103 l -358 1189 z "},"໌":{"ha":1,"x_min":-396,"x_max":171,"o":"m 171 1367 l 104 1278 l -151 1278 l -101 1232 l -249 1097 l -396 1232 l -249 1367 l 171 1367 z "},"ໍ":{"ha":3,"x_min":-460,"x_max":-165,"o":"m -312 1128 l -165 981 l -312 833 l -460 981 l -312 1128 z "},"໐":{"ha":750,"x_min":97,"x_max":653,"o":"m 236 188 l 468 94 l 514 113 l 514 535 l 282 628 l 236 610 l 236 188 m 653 160 q 583 67 653 94 l 468 19 q 375 0 421 0 q 283 19 329 0 l 168 65 q 97 160 97 94 l 97 563 q 167 656 97 628 l 282 703 q 375 722 329 722 q 467 703 421 722 l 582 657 q 653 563 653 628 l 653 160 z "},"໑":{"ha":750,"x_min":97,"x_max":653,"o":"m 97 563 q 167 656 97 628 l 282 703 q 375 722 329 722 q 467 703 421 722 l 582 657 q 653 563 653 628 l 653 160 q 583 67 653 94 l 468 19 q 375 0 421 0 q 283 19 329 0 l 168 65 l 236 188 l 468 94 l 514 113 l 514 535 l 282 628 l 236 610 l 236 485 l 319 424 l 236 306 l 97 375 l 97 563 z "},"໒":{"ha":750,"x_min":97,"x_max":653,"o":"m 97 417 q 329 703 97 549 q 514 889 514 825 l 514 944 l 653 1014 l 653 889 q 407 588 653 751 q 236 417 236 475 l 236 188 l 468 94 l 514 113 l 514 168 l 431 229 l 514 347 l 653 278 l 653 160 q 583 67 653 94 l 468 19 q 375 0 421 0 q 283 19 329 0 l 168 65 q 97 160 97 94 l 97 417 z "},"໓":{"ha":750,"x_min":14,"x_max":653,"o":"m 653 160 q 583 67 653 94 l 468 19 q 375 0 421 0 q 283 19 329 0 l 190 57 l 97 0 l 14 114 l 97 183 l 97 653 l 236 722 l 236 188 l 468 94 l 514 113 l 514 592 l 97 865 l 97 979 q 225 1099 97 1099 l 288 1099 l 653 847 l 510 776 l 236 960 l 236 871 l 653 599 l 653 160 z "},"໔":{"ha":750,"x_min":97,"x_max":681,"o":"m 97 417 q 329 703 97 549 q 514 889 514 825 l 514 944 l 653 1014 l 653 889 q 407 588 653 751 q 236 417 236 475 l 236 188 l 468 94 l 458 113 l 458 444 l 597 514 l 681 396 l 597 335 l 597 179 l 681 118 l 597 0 l 518 40 l 468 19 q 375 0 421 0 q 283 19 329 0 l 168 65 q 97 160 97 94 l 97 417 z "},"໕":{"ha":750,"x_min":97,"x_max":681,"o":"m 97 417 q 263 676 97 588 l 183 756 l 331 903 l 458 775 q 514 889 514 822 l 514 944 l 653 1014 l 653 889 q 390 582 653 675 q 236 417 236 528 l 236 188 l 468 94 l 458 113 l 458 444 l 597 514 l 681 396 l 597 335 l 597 179 l 681 118 l 597 0 l 518 40 l 468 19 q 375 0 421 0 q 283 19 329 0 l 168 65 q 97 160 97 94 l 97 417 z "},"໖":{"ha":750,"x_min":97,"x_max":653,"o":"m 653 160 q 611 65 653 94 l 544 19 q 490 0 517 0 q 436 19 464 0 l 375 61 l 314 19 q 260 0 286 0 q 206 19 233 0 l 138 67 q 97 160 97 94 l 97 653 l 236 722 l 319 604 l 236 543 l 236 133 l 342 207 l 436 113 l 514 167 l 514 688 l 285 838 l 285 951 q 460 1064 285 1064 l 653 946 l 653 778 l 424 932 l 424 843 l 653 693 l 653 160 z "},"໗":{"ha":750,"x_min":14,"x_max":653,"o":"m 514 535 l 282 628 l 236 610 l 236 69 l 97 0 l 14 118 l 97 179 l 97 539 l 14 608 l 97 722 l 190 665 l 282 703 q 375 722 329 722 q 467 703 421 722 l 582 657 q 653 535 653 628 l 653 -139 l 514 -208 l 514 535 z "},"໘":{"ha":750,"x_min":97,"x_max":653,"o":"m 514 133 l 236 -49 l 236 -136 l 514 44 l 514 133 m 371 -150 l 288 -207 l 225 -207 q 97 -157 147 -207 l 97 -43 l 514 231 l 514 556 l 436 610 l 342 515 l 236 589 l 236 290 l 319 229 l 236 111 l 97 181 l 97 563 q 138 656 97 628 l 206 703 q 260 722 233 722 q 314 703 286 722 l 375 661 l 436 703 q 490 722 464 722 q 544 703 517 722 l 611 657 q 653 563 653 628 l 653 44 l 544 -29 l 653 -137 l 506 -285 l 371 -150 z "},"໙":{"ha":1075,"x_min":97,"x_max":978,"o":"m 236 179 l 319 118 l 236 0 l 97 69 l 97 563 q 190 675 97 628 q 329 722 283 722 q 421 703 375 722 l 536 657 q 607 563 607 628 l 607 188 l 839 94 l 839 653 l 978 722 l 978 160 q 885 47 978 94 q 746 0 792 0 q 654 19 700 0 l 539 65 q 468 160 468 94 l 468 535 l 236 628 l 236 179 z "},"ໜ":{"ha":1376,"x_min":97,"x_max":1279,"o":"m 888 57 l 797 0 l 797 535 l 593 628 l 593 160 q 500 47 593 94 q 375 0 407 0 q 283 19 329 0 l 168 65 q 97 160 97 94 l 97 315 q 139 418 97 375 q 181 483 181 461 l 181 543 l 97 604 l 181 722 l 319 653 l 319 483 q 278 381 319 424 q 236 315 236 338 l 236 188 l 454 94 l 454 722 l 539 671 q 547 675 543 674 q 672 722 640 722 q 750 703 704 722 l 865 657 q 936 563 936 628 l 936 188 l 1140 94 l 1140 653 l 1279 722 l 1279 160 q 1186 47 1279 94 q 1061 0 1093 0 q 983 19 1029 0 l 888 57 z "},"ໝ":{"ha":1376,"x_min":97,"x_max":1279,"o":"m 936 188 l 1140 94 l 1140 653 l 1279 722 l 1279 160 q 1186 47 1279 94 q 1061 0 1093 0 q 983 19 1029 0 l 904 53 l 797 0 l 714 118 l 797 179 l 797 535 l 593 628 l 593 160 q 500 47 593 94 q 375 0 407 0 q 283 19 329 0 l 168 65 q 97 160 97 94 l 97 315 q 139 418 97 375 q 181 483 181 461 l 181 543 l 97 604 l 181 722 l 319 653 l 319 483 q 278 381 319 424 q 236 315 236 338 l 236 188 l 454 94 l 454 722 l 539 671 q 547 675 543 674 q 672 722 640 722 q 750 703 704 722 l 865 657 q 936 563 936 628 l 936 188 z "},"ໞ":{"ha":771,"x_min":14,"x_max":879,"o":"m 514 342 l 514 535 l 282 628 l 236 610 l 236 69 l 97 0 l 14 118 l 97 179 l 97 539 l 14 608 l 97 722 l 190 665 l 282 703 q 375 722 329 722 q 467 703 421 722 l 582 657 q 653 535 653 628 l 653 342 l 672 342 l 765 529 l 879 467 l 781 244 l 653 244 l 653 69 l 514 0 l 514 244 l 431 244 l 283 392 l 389 497 l 494 392 l 444 342 l 514 342 z "},"ໟ":{"ha":771,"x_min":97,"x_max":888,"o":"m 653 388 l 653 160 q 583 67 653 94 l 468 19 q 375 0 421 0 q 283 19 329 0 l 168 65 q 97 160 97 94 l 97 390 l 176 422 l 97 474 l 97 653 l 236 722 l 319 604 l 236 543 l 236 446 l 318 479 l 375 353 l 236 297 l 236 188 l 468 94 l 514 113 l 514 388 l 439 388 l 292 535 l 397 640 l 503 535 l 453 485 l 514 485 l 514 653 l 653 722 l 653 485 l 681 485 l 774 672 l 888 610 l 789 388 l 653 388 z "}}}
